# xmcd
#
# Track frame offsets:
# 150
# 14200
# 29620
# 42317
# 63462
# 80975
# 89900
# 105667
# 117200
# 133240
# 146912
# 162877
#
# Disc length: 2373 seconds
#
#
# Revision: 3
# Processed by: cddbd v1.5.2PL0 Copyright (c) Steve Scherf et al.
# Submitted via: FreeRIP 2.951 
#
DISCID=bb09430c
DTITLE=Fairground Attraction - Ay fond kiss
DYEAR=1990
DGENRE=Folk
TTITLE0=Jock O'Hazeldan
TTITLE1=The game of love
TTITLE2=Walking after midnight
TTITLE3=You send me
TTITLE4=Trying times
TTITLE5=Mystery train
TTITLE6=Winter rose
TTITLE7=Do you want to know a secret
TTITLE8=Allelujah -live-
TTITLE9=Cajun band
TTITLE10=Watching the party
TTITLE11=Ay fond kiss
EXTD=
EXTT0=
EXTT1=
EXTT2=
EXTT3=
EXTT4=
EXTT5=
EXTT6=
EXTT7=
EXTT8=
EXTT9=
EXTT10=
EXTT11=
PLAYORDER=
